<svg width="3266" height="2389" xmlns="http://www.w3.org/2000/svg" xmlns:xlink="http://www.w3.org/1999/xlink" xml:space="preserve" overflow="hidden"><defs><filter id="fx0" x="-10%" y="-10%" width="120%" height="120%" filterUnits="userSpaceOnUse" primitiveUnits="userSpaceOnUse"><feComponentTransfer color-interpolation-filters="sRGB"><feFuncR type="discrete" tableValues="0 0"></feFuncR><feFuncG type="discrete" tableValues="0 0"></feFuncG><feFuncB type="discrete" tableValues="0 0"></feFuncB><feFuncA type="linear" slope="0.4" intercept="0"></feFuncA></feComponentTransfer><feGaussianBlur stdDeviation="6.11111 6.11111"></feGaussianBlur></filter><filter id="fx1" x="-10%" y="-10%" width="120%" height="120%" filterUnits="userSpaceOnUse" primitiveUnits="userSpaceOnUse"><feComponentTransfer color-interpolation-filters="sRGB"><feFuncR type="discrete" tableValues="0 0"></feFuncR><feFuncG type="discrete" tableValues="0 0"></feFuncG><feFuncB type="discrete" tableValues="0 0"></feFuncB><feFuncA type="linear" slope="0.4" intercept="0"></feFuncA></feComponentTransfer><feGaussianBlur stdDeviation="6.11111 6.11111"></feGaussianBlur></filter><filter id="fx2" x="-10%" y="-10%" width="120%" height="120%" filterUnits="userSpaceOnUse" primitiveUnits="userSpaceOnUse"><feComponentTransfer color-interpolation-filters="sRGB"><feFuncR type="discrete" tableValues="0 0"></feFuncR><feFuncG type="discrete" tableValues="0 0"></feFuncG><feFuncB type="discrete" tableValues="0 0"></feFuncB><feFuncA type="linear" slope="0.4" intercept="0"></feFuncA></feComponentTransfer><feGaussianBlur stdDeviation="6.11111 6.11111"></feGaussianBlur></filter><filter id="fx3" x="-10%" y="-10%" width="120%" height="120%" filterUnits="userSpaceOnUse" primitiveUnits="userSpaceOnUse"><feComponentTransfer color-interpolation-filters="sRGB"><feFuncR type="discrete" tableValues="0 0"></feFuncR><feFuncG type="discrete" tableValues="0 0"></feFuncG><feFuncB type="discrete" tableValues="0 0"></feFuncB><feFuncA type="linear" slope="0.4" intercept="0"></feFuncA></feComponentTransfer><feGaussianBlur stdDeviation="6.11111 6.11111"></feGaussianBlur></filter><filter id="fx4" x="-10%" y="-10%" width="120%" height="120%" filterUnits="userSpaceOnUse" primitiveUnits="userSpaceOnUse"><feComponentTransfer color-interpolation-filters="sRGB"><feFuncR type="discrete" tableValues="0 0"></feFuncR><feFuncG type="discrete" tableValues="0 0"></feFuncG><feFuncB type="discrete" tableValues="0 0"></feFuncB><feFuncA type="linear" slope="0.4" intercept="0"></feFuncA></feComponentTransfer><feGaussianBlur stdDeviation="6.11111 6.11111"></feGaussianBlur></filter><clipPath id="clip5"><rect x="449" y="13" width="3266" height="2389"></rect></clipPath><clipPath id="clip6"><path d="M1607.5 24.4999C1476.06 24.4999 1369.5 131.057 1369.5 262.501L1369.5 2128.5C1369.5 2259.94 1476.06 2366.5 1607.5 2366.5L1607.5 2366.5C1738.94 2366.5 1845.5 2259.95 1845.5 2128.5L1845.5 262.501C1845.5 131.057 1738.95 24.4999 1607.5 24.4999ZM449 13 3715 13 3715 2402 449 2402Z" fill-rule="evenodd" clip-rule="evenodd"></path></clipPath><clipPath id="clip7"><path d="M817 1668.5C620.111 1668.5 460.5 1825.65 460.5 2019.5 460.5 2213.35 620.111 2370.5 817 2370.5 1013.89 2370.5 1173.5 2213.35 1173.5 2019.5 1173.5 1825.65 1013.89 1668.5 817 1668.5ZM449 13 3715 13 3715 2402 449 2402Z" fill-rule="evenodd" clip-rule="evenodd"></path></clipPath><clipPath id="clip8"><path d="M2289.5 24.4999C2160.27 24.4999 2055.5 129.265 2055.5 258.5 2055.5 387.735 2160.27 492.5 2289.5 492.5L3449.5 492.5C3578.73 492.5 3683.5 387.735 3683.5 258.5 3683.5 129.265 3578.73 24.4999 3449.5 24.4999ZM449 13 3715 13 3715 2402 449 2402Z" fill-rule="evenodd" clip-rule="evenodd"></path></clipPath><clipPath id="clip9"><path d="M3446 24.4999C3314.83 24.4999 3208.5 130.833 3208.5 262.001L3208.5 1426C3208.5 1557.17 3314.83 1663.5 3446 1663.5L3446 1663.5C3577.17 1663.5 3683.5 1557.17 3683.5 1426L3683.5 262.001C3683.5 130.833 3577.17 24.4999 3446 24.4999ZM449 13 3715 13 3715 2402 449 2402Z" fill-rule="evenodd" clip-rule="evenodd"></path></clipPath><clipPath id="clip10"><path d="M2700 642.5C2503.11 642.5 2343.5 799.872 2343.5 994 2343.5 1188.13 2503.11 1345.5 2700 1345.5 2896.89 1345.5 3056.5 1188.13 3056.5 994 3056.5 799.872 2896.89 642.5 2700 642.5ZM449 13 3715 13 3715 2402 449 2402Z" fill-rule="evenodd" clip-rule="evenodd"></path></clipPath></defs><g clip-path="url(#clip5)" transform="translate(-449 -13)"><g clip-path="url(#clip6)"><g filter="url(#fx0)" transform="translate(1357 12)"><g><path d="M22.2228 260.224C22.2228 128.779 128.78 22.2226 260.224 22.2226L260.224 22.2226C391.669 22.2226 498.225 128.779 498.225 260.224L498.223 2126.22C498.223 2257.67 391.666 2364.23 260.222 2364.23L260.224 2364.22C128.78 2364.22 22.2228 2257.67 22.2228 2126.22Z" stroke="#44546A" stroke-width="5" stroke-miterlimit="8" fill="#44546A" fill-rule="evenodd"></path></g></g></g><path d="M1369.5 262.501C1369.5 131.057 1476.06 24.4999 1607.5 24.4999L1607.5 24.4999C1738.95 24.4999 1845.5 131.057 1845.5 262.501L1845.5 2128.5C1845.5 2259.95 1738.94 2366.5 1607.5 2366.5L1607.5 2366.5C1476.06 2366.5 1369.5 2259.94 1369.5 2128.5Z" stroke="#44546A" stroke-width="4.58333" stroke-miterlimit="8" fill="#44546A" fill-rule="evenodd"></path><g clip-path="url(#clip7)"><g filter="url(#fx1)" transform="translate(448 1656)"><g><path d="M735.223 373.223C735.223 567.075 575.612 724.223 378.723 724.223 181.833 724.223 22.2228 567.075 22.2228 373.223 22.2228 179.371 181.833 22.2227 378.723 22.2227 575.612 22.2227 735.223 179.371 735.223 373.223Z" stroke="#ED7D31" stroke-width="5" stroke-miterlimit="8" fill="#ED7D31" fill-rule="evenodd"></path></g></g></g><path d="M1173.5 2019.5C1173.5 2213.35 1013.89 2370.5 817 2370.5 620.111 2370.5 460.5 2213.35 460.5 2019.5 460.5 1825.65 620.111 1668.5 817 1668.5 1013.89 1668.5 1173.5 1825.65 1173.5 2019.5Z" stroke="#ED7D31" stroke-width="4.58333" stroke-miterlimit="8" fill="#ED7D31" fill-rule="evenodd"></path><g clip-path="url(#clip8)"><g filter="url(#fx2)" transform="translate(2043 12)"><g><path d="M1416.22 22.2226C1545.46 22.2226 1650.22 126.988 1650.22 256.223L1650.22 256.223C1650.22 385.457 1545.46 490.223 1416.22 490.223L256.223 490.223C126.988 490.223 22.2229 385.457 22.2229 256.223L22.2229 256.223C22.2229 126.988 126.988 22.2226 256.223 22.2226Z" stroke="#44546A" stroke-width="5" stroke-miterlimit="8" fill="#44546A" fill-rule="evenodd"></path></g></g></g><path d="M3449.5 24.4999C3578.73 24.4999 3683.5 129.265 3683.5 258.5L3683.5 258.5C3683.5 387.735 3578.73 492.5 3449.5 492.5L2289.5 492.5C2160.27 492.5 2055.5 387.735 2055.5 258.5L2055.5 258.5C2055.5 129.265 2160.27 24.4999 2289.5 24.4999Z" stroke="#44546A" stroke-width="4.58333" stroke-miterlimit="8" fill="#44546A" fill-rule="evenodd"></path><g clip-path="url(#clip9)"><g filter="url(#fx3)" transform="translate(3196 12)"><g><path d="M22.2229 259.723C22.2229 128.555 128.556 22.2226 259.724 22.2226L259.724 22.2226C390.892 22.2226 497.225 128.555 497.225 259.723L497.223 1423.72C497.223 1554.89 390.89 1661.22 259.722 1661.22L259.724 1661.22C128.556 1661.22 22.2229 1554.89 22.2229 1423.72Z" stroke="#44546A" stroke-width="5" stroke-miterlimit="8" fill="#44546A" fill-rule="evenodd"></path></g></g></g><path d="M3208.5 262.001C3208.5 130.833 3314.83 24.4999 3446 24.4999L3446 24.4999C3577.17 24.4999 3683.5 130.833 3683.5 262.001L3683.5 1426C3683.5 1557.17 3577.17 1663.5 3446 1663.5L3446 1663.5C3314.83 1663.5 3208.5 1557.17 3208.5 1426Z" stroke="#44546A" stroke-width="4.58333" stroke-miterlimit="8" fill="#44546A" fill-rule="evenodd"></path><g clip-path="url(#clip10)"><g filter="url(#fx4)" transform="translate(2331 630)"><g><path d="M735.223 373.723C735.223 567.851 575.612 725.223 378.723 725.223 181.833 725.223 22.2227 567.851 22.2227 373.723 22.2227 179.595 181.833 22.2227 378.723 22.2227 575.612 22.2227 735.223 179.595 735.223 373.723Z" stroke="#ED7D31" stroke-width="5" stroke-miterlimit="8" fill="#ED7D31" fill-rule="evenodd"></path></g></g></g><path d="M3056.5 994C3056.5 1188.13 2896.89 1345.5 2700 1345.5 2503.11 1345.5 2343.5 1188.13 2343.5 994 2343.5 799.872 2503.11 642.5 2700 642.5 2896.89 642.5 3056.5 799.872 3056.5 994Z" stroke="#ED7D31" stroke-width="4.58333" stroke-miterlimit="8" fill="#ED7D31" fill-rule="evenodd"></path></g></svg>